<?xml version="1.0" encoding="utf-8"?>
<!-- Generator: Adobe Illustrator 19.1.0, SVG Export Plug-In . SVG Version: 6.00 Build 0)  -->
<svg version="1.1" id="Layer_1" xmlns="http://www.w3.org/2000/svg" xmlns:xlink="http://www.w3.org/1999/xlink" x="0px" y="0px"
	 viewBox="353 -73.4 1111.7 195.4" style="enable-background:new 353 -73.4 1111.7 195.4;" xml:space="preserve">
<style type="text/css">
	.st0{filter:url(#Adobe_OpacityMaskFilter);}
	.st1{mask:url(#SVGID_1_);}
	.st2{display:none;}
	.st3{display:inline;}
	.st4{opacity:0.75;clip-path:url(#SVGID_5_);enable-background:new    ;}
	.st5{fill:url(#SVGID_6_);}
	.st6{clip-path:url(#SVGID_8_);fill:url(#SVGID_9_);}
	.st7{fill:none;stroke:#FFFFFF;stroke-width:2.816;}
	.st8{filter:url(#Adobe_OpacityMaskFilter_1_);}
	.st9{fill:url(#SVGID_11_);}
	.st10{mask:url(#SVGID_10_);}
	.st11{clip-path:url(#SVGID_13_);fill:#FFFFFF;}
	.st12{enable-background:new    ;}
	.st13{clip-path:url(#SVGID_15_);fill:#FFFFFF;}
	.st14{fill:none;}
</style>
<defs>
	<filter id="Adobe_OpacityMaskFilter" filterUnits="userSpaceOnUse" x="571.3" y="-28.8" width="196.8" height="196.8">
		<feColorMatrix  type="matrix" values="1 0 0 0 0  0 1 0 0 0  0 0 1 0 0  0 0 0 1 0"/>
	</filter>
</defs>
<mask maskUnits="userSpaceOnUse" x="571.3" y="-28.8" width="196.8" height="196.8" id="SVGID_1_">
	<g class="st0">
		<g>
			<g>
				<defs>
					<rect id="SVGID_2_" x="561.2" y="-37.9" width="217" height="208.8"/>
				</defs>
				<clipPath id="SVGID_3_">
					<use xlink:href="#SVGID_2_"  style="overflow:visible;"/>
				</clipPath>
				<g>
					<g style="clip-path:url(#SVGID_3_);enable-background:new    ;">
						
							<image style="overflow:visible;" width="454" height="435" xlink:href="D1E191577CB2F454.jpeg"  transform="matrix(0.4779 0 0 0.48 561.2294 -37.9258)">
						</image>
					</g>
				</g>
			</g>
		</g>
	</g>
</mask>
<g class="st1">
	<g class="st2">
		<g class="st3">
			<defs>
				<rect id="SVGID_4_" x="571.3" y="-28.8" width="196.8" height="196.8"/>
			</defs>
			<clipPath id="SVGID_5_">
				<use xlink:href="#SVGID_4_"  style="overflow:visible;"/>
			</clipPath>
			<rect x="571.3" y="-28.8" class="st4" width="196.8" height="196.8"/>
		</g>
	</g>
</g>
<g>
	<path d="M1460.3,30.9V15.2h-84.9v-26.7h89.4v-15.7h-109.5V79.3h109.5V63.7h-89.4V31.1h84.9V30.9z M1304.9-11.5
		c11.8,0,17.9,2.4,17.9,7.2V17c0,4.8-5.9,7.2-17.9,7.2h-62.7v-35.7H1304.9z M1242.4,79.3V40h62.7c25.3,0,38.1-7.7,38.1-23V-4.3
		c0-15.3-12.6-23-38.1-23h-82.8V79.2h20.1V79.3z M1169.6-11.5c11.8,0,17.9,2.4,17.9,7.2V8.7c0,4.8-5.9,7.2-17.9,7.2h-64.1v-27.3
		H1169.6z M1105.5,79.3V31.9h54.7l24.9,47.5h21.4l-25.3-48.1c17.6-2.1,26.4-9.6,26.4-22.4V-4.1c0-15.3-12.6-23-38.1-23h-84.3V79.3
		H1105.5z M1005.1-27.3h-14.7L919.6,79.2H941l56.9-87l55.8,87h21.7L1005.1-27.3z M889.5,79.3h20.1V-27.3h-20.1v42.4h-87.1v-42.4
		h-20.1V79.2h20.1V30.7h87.1V79.3z M669.5,14.6c-11.8,0-17.9-2.4-17.9-7.2V-4.3c0-4.8,5.9-7.2,17.9-7.2h87.9v-15.7h-87.9
		c-25.3,0-38,7.7-38,23V7.6c0,15.3,12.6,23,38,23h56.6c11.8,0,17.9,2.4,17.9,7.2v18.9c0,4.6-5.9,7-17.9,7h-91v15.7h91
		c25.3,0,38-7.5,38-22.7V37.8c0-15.3-12.6-23-38-23h-56.6V14.6z"/>
	<g>
		
			<linearGradient id="SVGID_6_" gradientUnits="userSpaceOnUse" x1="703.6318" y1="-573.4662" x2="704.6318" y2="-573.4662" gradientTransform="matrix(154.091 0 0 154.091 -108047.7578 88390.4766)">
			<stop  offset="0" style="stop-color:#000000"/>
			<stop  offset="9.707032e-02" style="stop-color:#57585A"/>
			<stop  offset="0.2777" style="stop-color:#9A9C9F"/>
			<stop  offset="0.4254" style="stop-color:#CED0D1"/>
			<stop  offset="0.5324" style="stop-color:#EFF0F0"/>
			<stop  offset="0.5879" style="stop-color:#FFFFFF"/>
			<stop  offset="1" style="stop-color:#808285"/>
		</linearGradient>
		<path class="st5" d="M452.6,104.9v-12c37.8-0.1,68.4-30.6,68.4-68.4c-0.1-37.8-30.6-68.4-68.4-68.4c-37.8,0.1-68.4,30.6-68.4,68.4
			c0.1,37.8,30.6,68.4,68.4,68.4V104.9v12c-51,0-92.4-41.4-92.4-92.4s41.4-92.4,92.4-92.4S545-26.5,545,24.5s-41.4,92.4-92.4,92.4
			V104.9z"/>
		<g>
			<g>
				<defs>
					<path id="SVGID_7_" d="M374.7,24.7c0,43.3,35.1,78.4,78.4,78.4s78.4-35.1,78.4-78.4s-35.1-78.4-78.4-78.4
						C409.8-53.7,374.7-18.6,374.7,24.7"/>
				</defs>
				<clipPath id="SVGID_8_">
					<use xlink:href="#SVGID_7_"  style="overflow:visible;"/>
				</clipPath>
				
					<radialGradient id="SVGID_9_" cx="700.3803" cy="-575.0349" r="1.0001" gradientTransform="matrix(78.3959 0 0 78.3959 -54453.8438 45105.0703)" gradientUnits="userSpaceOnUse">
					<stop  offset="0" style="stop-color:#FFFFFF"/>
					<stop  offset="7.380247e-03" style="stop-color:#F4F4F5"/>
					<stop  offset="4.767627e-02" style="stop-color:#CECFD1"/>
					<stop  offset="9.308982e-02" style="stop-color:#AAACAF"/>
					<stop  offset="0.1419" style="stop-color:#8D8F92"/>
					<stop  offset="0.195" style="stop-color:#757679"/>
					<stop  offset="0.2537" style="stop-color:#5F6063"/>
					<stop  offset="0.32" style="stop-color:#4C4C4E"/>
					<stop  offset="0.3974" style="stop-color:#38383A"/>
					<stop  offset="0.4931" style="stop-color:#1E1E1F"/>
					<stop  offset="0.6274" style="stop-color:#070708"/>
					<stop  offset="1" style="stop-color:#000000"/>
				</radialGradient>
				<rect x="374.7" y="-53.7" class="st6" width="156.8" height="156.8"/>
			</g>
		</g>
		<circle class="st7" cx="453.1" cy="24.7" r="72"/>
		<circle class="st7" cx="453.1" cy="24.7" r="77.1"/>
		<circle class="st7" cx="453.1" cy="24.7" r="66.9"/>
		<circle class="st7" cx="453.1" cy="24.7" r="61.9"/>
		<circle class="st7" cx="453.1" cy="24.7" r="56.8"/>
		<circle class="st7" cx="453.1" cy="24.7" r="51.8"/>
		<defs>
			<filter id="Adobe_OpacityMaskFilter_1_" filterUnits="userSpaceOnUse" x="390.6" y="53.3" width="70" height="52.1">
				<feColorMatrix  type="matrix" values="1 0 0 0 0  0 1 0 0 0  0 0 1 0 0  0 0 0 1 0"/>
			</filter>
		</defs>
		<mask maskUnits="userSpaceOnUse" x="390.6" y="53.3" width="70" height="52.1" id="SVGID_10_">
			<g class="st8">
				
					<linearGradient id="SVGID_11_" gradientUnits="userSpaceOnUse" x1="714.1002" y1="-552.0055" x2="715.1002" y2="-552.0055" gradientTransform="matrix(6.2923 -29.6028 -29.6028 -6.2923 -20384.0605 17769.3398)">
					<stop  offset="0" style="stop-color:#FFFFFF"/>
					<stop  offset="1" style="stop-color:#000000"/>
				</linearGradient>
				<polygon class="st9" points="686.7,396 782.2,-53.1 210.5,-174.6 115.1,274.5 				"/>
			</g>
		</mask>
		<g class="st10">
			<g>
				<g>
					<defs>
						<rect id="SVGID_12_" x="390.6" y="53.3" width="70" height="52.1"/>
					</defs>
					<clipPath id="SVGID_13_">
						<use xlink:href="#SVGID_12_"  style="overflow:visible;"/>
					</clipPath>
					<path class="st11" d="M442.4,75.2l1.3,27.3c0,0-23.8-4.5-42-19.4c5.8-4.7,21-16.6,21-16.6S430.4,72.9,442.4,75.2"/>
				</g>
			</g>
		</g>
		<g class="st12">
			<g>
				<g>
					<defs>
						<rect id="SVGID_14_" x="433.7" y="6.5" width="37.9" height="28.9"/>
					</defs>
					<clipPath id="SVGID_15_">
						<use xlink:href="#SVGID_14_"  style="overflow:visible;"/>
					</clipPath>
					<path class="st13" d="M452.6,34.4c5.5,0,10-4.5,10-10s-4.5-10-10-10s-10,4.5-10,10S447.1,34.4,452.6,34.4"/>
				</g>
			</g>
		</g>
		<rect x="350" y="-68.6" class="st14" width="205.3" height="194"/>
	</g>
</g>
</svg>
