<?xml version="1.0" encoding="utf-8"?>
<!-- Generator: Adobe Illustrator 19.1.0, SVG Export Plug-In . SVG Version: 6.00 Build 0)  -->
<svg version="1.1" id="Layer_1" xmlns="http://www.w3.org/2000/svg" xmlns:xlink="http://www.w3.org/1999/xlink" x="0px" y="0px"
	 viewBox="0 0 279.6 50" style="enable-background:new 0 0 279.6 50;" xml:space="preserve">
<style type="text/css">
	.st0{fill:#FFFFFF;}
	.st1{fill:#73243D;}
	.st2{fill:#EC2227;}
</style>
<g>
	<path class="st0" d="M201.9,35.9c-0.1,0-0.2-0.1-0.2-0.2v-1c0-0.1,0.1-0.2,0.2-0.2h1.7c0.1,0,0.2-0.1,0.2-0.2v-6.1
		c0-0.1-0.1-0.2-0.1-0.2c-0.1,0-0.1,0-0.2,0.1l-0.8,0.8c0,0.1-0.1,0.1-0.2,0.1c-0.1,0-0.1-0.1-0.1-0.1l-0.7-0.7
		c-0.1,0-0.1-0.1-0.1-0.1c0-0.1,0-0.1,0.1-0.1l2.7-2.7c0.1-0.1,0.1-0.1,0.2-0.1h0.6c0.1,0,0.2,0.1,0.2,0.2v9c0,0.1,0.1,0.2,0.2,0.2
		h1.7c0.1,0,0.2,0.1,0.2,0.2v1c0,0.1-0.1,0.2-0.2,0.2H201.9z"/>
	<path class="st0" d="M212.1,36.1c-1.3,0-2-0.5-2.5-1.1c-0.1-0.2-0.3-0.5-0.3-0.6c0-0.1,0-0.1,0.1-0.1l0.9-0.5
		c0.1-0.1,0.2-0.1,0.3-0.1c0.1,0,0.1,0,0.1,0.1c0.3,0.6,0.8,0.9,1.4,0.9h0.5c0.8,0,1.5-0.7,1.5-1.5v-1.5c0-0.1-0.1-0.2-0.2-0.2
		c-0.1,0-0.1,0-0.1,0.1c-0.4,0.3-1,0.5-1.4,0.5h-0.5c-1.6,0-2.9-1.2-2.9-2.9V28c0-1.7,1.2-2.9,3-2.9h0.5c1.9,0,3,1.2,3,2.9v5.2
		c0,1.7-1.2,2.9-3,2.9H212.1z M212.6,30.8c0.8,0,1.5-0.7,1.5-1.5V28c0-0.8-0.7-1.5-1.5-1.5h-0.5c-0.8,0-1.5,0.7-1.5,1.5v1.3
		c0,0.8,0.7,1.5,1.5,1.5H212.6z"/>
	<path class="st0" d="M221.6,36.1c-1.3,0-2-0.5-2.5-1.1c-0.1-0.2-0.3-0.5-0.3-0.6c0-0.1,0-0.1,0.1-0.1l0.9-0.5
		c0.1-0.1,0.2-0.1,0.3-0.1c0.1,0,0.1,0,0.1,0.1c0.3,0.6,0.8,0.9,1.4,0.9h0.5c0.8,0,1.5-0.7,1.5-1.5v-1.5c0-0.1-0.1-0.2-0.2-0.2
		c-0.1,0-0.1,0-0.1,0.1c-0.4,0.3-1,0.5-1.4,0.5h-0.5c-1.6,0-2.9-1.2-2.9-2.9V28c0-1.7,1.2-2.9,3-2.9h0.5c1.9,0,3,1.2,3,2.9v5.2
		c0,1.7-1.2,2.9-3,2.9H221.6z M222.1,30.8c0.8,0,1.5-0.7,1.5-1.5V28c0-0.8-0.7-1.5-1.5-1.5h-0.5c-0.8,0-1.5,0.7-1.5,1.5v1.3
		c0,0.8,0.7,1.5,1.5,1.5H222.1z"/>
	<path class="st0" d="M230.8,36.1c-1.2,0-1.9-0.4-2.4-1c-0.3-0.3-0.4-0.6-0.4-0.7c0-0.1,0-0.1,0.1-0.1l0.9-0.5
		c0.1-0.1,0.2-0.1,0.3-0.1c0.1,0,0.1,0,0.1,0.1c0.3,0.6,0.8,1,1.4,1h0.5c0.8,0,1.5-0.7,1.5-1.5v-0.6c0-0.8-0.7-1.5-1.5-1.5h-2.7
		c-0.1,0-0.2-0.1-0.2-0.2v-5.5c0-0.1,0.1-0.2,0.2-0.2h5.4c0.1,0,0.2,0.1,0.2,0.2v1c0,0.1-0.1,0.2-0.2,0.2h-3.9
		c-0.1,0-0.2,0.1-0.2,0.2v2.8c0,0.1,0.1,0.2,0.2,0.2h1.2c1.9,0,3,1.2,3,3v0.3c0,1.9-1.2,3-3,3H230.8z"/>
	<path class="st0" d="M237.2,31.1c-0.1,0-0.2-0.1-0.2-0.2v-0.7c0-0.1,0.1-0.2,0.2-0.2h7.6c0.1,0,0.2,0.1,0.2,0.2v0.7
		c0,0.1-0.1,0.2-0.2,0.2H237.2z"/>
	<path class="st0" d="M248.1,35.9c-0.1,0-0.2-0.1-0.2-0.2V34c0-2,1.3-2.9,2.5-3.7c1.1-0.7,2.2-1.2,2.2-2.3c0-0.8-0.7-1.5-1.5-1.5
		h-0.6c-0.6,0-1.1,0.3-1.4,0.9c0,0.1-0.1,0.1-0.2,0.1c-0.1,0-0.1,0-0.2-0.1l-0.9-0.5c-0.1,0-0.1-0.1-0.1-0.1c0-0.1,0.1-0.3,0.2-0.5
		c0.5-0.7,1.2-1.3,2.6-1.3h0.6c1.9,0,3,1.2,3,2.9c0,2-1.4,2.8-2.7,3.6c-1.1,0.6-2,1.2-2,2.4v0.4c0,0.1,0.1,0.2,0.2,0.2h4.2
		c0.1,0,0.2,0.1,0.2,0.2v1c0,0.1-0.1,0.2-0.2,0.2H248.1z"/>
	<path class="st0" d="M259.7,36.1c-1.9,0-3-1.2-3-2.9V28c0-1.7,1.2-2.9,3-2.9h0.5c1.9,0,3,1.2,3,2.9v5.2c0,1.7-1.2,2.9-3,2.9H259.7z
		 M260.2,34.7c0.8,0,1.5-0.7,1.5-1.5V28c0-0.8-0.7-1.5-1.5-1.5h-0.5c-0.8,0-1.5,0.7-1.5,1.5v5.2c0,0.8,0.7,1.5,1.5,1.5H260.2z"/>
	<path class="st0" d="M266,35.9c-0.1,0-0.2-0.1-0.2-0.2v-1c0-0.1,0.1-0.2,0.2-0.2h1.7c0.1,0,0.2-0.1,0.2-0.2v-6.1
		c0-0.1-0.1-0.2-0.1-0.2c-0.1,0-0.1,0-0.2,0.1l-0.8,0.8c0,0.1-0.1,0.1-0.2,0.1c-0.1,0-0.1-0.1-0.1-0.1l-0.7-0.7
		c-0.1,0-0.1-0.1-0.1-0.1c0-0.1,0-0.1,0.1-0.1l2.7-2.7c0.1-0.1,0.1-0.1,0.2-0.1h0.6c0.1,0,0.2,0.1,0.2,0.2v9c0,0.1,0.1,0.2,0.2,0.2
		h1.7c0.1,0,0.2,0.1,0.2,0.2v1c0,0.1-0.1,0.2-0.2,0.2H266z"/>
	<path class="st0" d="M276.1,36.1c-1.2,0-1.9-0.4-2.4-1c-0.3-0.3-0.4-0.6-0.4-0.7c0-0.1,0-0.1,0.1-0.1l0.9-0.5
		c0.1-0.1,0.2-0.1,0.3-0.1c0.1,0,0.1,0,0.1,0.1c0.3,0.6,0.8,1,1.4,1h0.5c0.8,0,1.5-0.7,1.5-1.5v-0.6c0-0.8-0.7-1.5-1.5-1.5h-2.7
		c-0.1,0-0.2-0.1-0.2-0.2v-5.5c0-0.1,0.1-0.2,0.2-0.2h5.4c0.1,0,0.2,0.1,0.2,0.2v1c0,0.1-0.1,0.2-0.2,0.2h-3.9
		c-0.1,0-0.2,0.1-0.2,0.2v2.8c0,0.1,0.1,0.2,0.2,0.2h1.2c1.9,0,3,1.2,3,3v0.3c0,1.9-1.2,3-3,3H276.1z"/>
</g>
<g>
	<polygon class="st1" points="139.7,34.2 105.5,24.4 105.5,40.2 139.7,50 	"/>
	<polygon class="st1" points="188.8,9.8 154.6,0 154.6,15.8 188.8,25.6 	"/>
	<polygon class="st2" points="188.8,25.6 105.5,40.1 105.5,24.3 188.8,9.8 	"/>
	<g>
		<path class="st0" d="M112.3,29.5V29c0-0.5-0.2-0.7-0.5-0.6c-0.4,0.1-0.5,0.3-0.5,0.7V32c0,0.4,0.1,0.6,0.5,0.5
			c0.4-0.1,0.5-0.3,0.5-0.7v-0.7l1-0.2v0.7c0,0.8-0.5,1.5-1.4,1.7c-1,0.2-1.5-0.4-1.5-1.2v-2.9c0-0.8,0.5-1.5,1.5-1.7
			c1-0.2,1.4,0.5,1.4,1.3v0.4L112.3,29.5z"/>
		<path class="st0" d="M114.6,32.9v-5.7l2.6-0.4v0.9l-1.6,0.3v1.5l1.2-0.2V30l-1.2,0.2v1.7l1.7-0.3v0.9L114.6,32.9z"/>
		<path class="st0" d="M118.4,32.2v-5.7l1-0.2v4.9l1.5-0.3v0.9L118.4,32.2z"/>
		<path class="st0" d="M121.9,31.6v-5.7l2.6-0.4v0.9l-1.6,0.3v1.5l1.2-0.2v0.9l-1.2,0.2v1.7l1.7-0.3v0.9L121.9,31.6z"/>
		<path class="st0" d="M125.7,25.3l1.4-0.2c1-0.2,1.5,0.3,1.5,1.3c0,0.5-0.2,1-0.7,1.3c0.5,0.1,0.8,0.5,0.8,1.2
			c0,0.9-0.4,1.7-1.5,1.9l-1.5,0.3V25.3z M126.7,27.4l0.4-0.1c0.4-0.1,0.6-0.4,0.6-0.8c0-0.5-0.2-0.8-0.6-0.7l-0.4,0.1V27.4z
			 M126.7,30l0.4-0.1c0.5-0.1,0.7-0.4,0.7-1c0-0.6-0.2-0.8-0.8-0.7l-0.3,0.1V30z"/>
		<path class="st0" d="M131,30.1l-1,0.2v-5.7l1.4-0.2c1.1-0.2,1.6,0.2,1.6,1.4c0,0.9-0.4,1.4-0.7,1.6l0.8,2.4l-1,0.2l-0.7-2.2
			c-0.1,0-0.3,0.1-0.5,0.1V30.1z M131,26.9l0.3-0.1c0.5-0.1,0.7-0.3,0.7-1c0-0.7-0.2-0.8-0.7-0.8l-0.3,0.1V26.9z"/>
		<path class="st0" d="M134.9,29.4l-0.9,0.2l1-5.9l1.2-0.2l1,5.5l-0.9,0.2l-0.2-1.2l-1.1,0.2L134.9,29.4z M135.2,27.2l0.8-0.1
			l-0.4-2.4l0,0L135.2,27.2z"/>
		<path class="st0" d="M138.4,23.9l-0.9,0.2v-0.9l2.8-0.5v0.9l-0.9,0.2v4.9l-1,0.2V23.9z"/>
		<path class="st0" d="M141.4,28.3v-5.7l1-0.2v5.7L141.4,28.3z"/>
		<path class="st0" d="M143.9,27.9v-5.7l0.9-0.2l1.2,3.1l0,0v-3.3l0.9-0.1v5.7l-0.8,0.1l-1.2-3.4l0,0v3.6L143.9,27.9z"/>
		<path class="st0" d="M149.5,24l1.6-0.3v2.9l-0.5,0.1l-0.2-0.4c-0.3,0.4-0.5,0.6-1,0.7c-0.8,0.1-1.3-0.3-1.3-1.2v-2.9
			c0-0.8,0.5-1.5,1.4-1.7c1-0.2,1.5,0.5,1.5,1.3v0.4l-0.9,0.2c0-0.9-0.2-1-0.6-1c-0.2,0-0.4,0.2-0.4,0.7v2.9c0,0.4,0.1,0.6,0.5,0.5
			c0.4-0.1,0.5-0.3,0.5-0.9v-0.6l-0.6,0.1V24z"/>
		<path class="st0" d="M154.4,26.1v-0.8c1.2-2,1.9-3.1,1.9-3.9c0-0.5-0.2-0.6-0.4-0.6c-0.3,0.1-0.5,0.3-0.5,0.7v0.4l-0.9,0.2v-0.3
			c0-0.8,0.5-1.6,1.4-1.7c0.8-0.1,1.3,0.4,1.3,1c0,0.9-0.3,1.6-1.8,4l1.7-0.3v0.8L154.4,26.1z"/>
		<path class="st0" d="M158.3,21.2c0-1.1,0.4-1.6,1.4-1.8c1-0.2,1.4,0.3,1.4,1.3v2.7c0,1.1-0.4,1.6-1.4,1.8c-1,0.2-1.4-0.3-1.4-1.3
			V21.2z M160.1,20.6c0-0.4-0.2-0.5-0.5-0.5c-0.3,0-0.5,0.3-0.5,0.6V24c0,0.4,0.2,0.5,0.5,0.5c0.3,0,0.5-0.3,0.5-0.6V20.6z"/>
		<path class="st0" d="M166.1,24.1l-1,0.2v-2.4l-1.2-3.1l1-0.2l0.7,2.1l0,0l0.6-2.3l1-0.2l-1.2,3.5V24.1z"/>
		<path class="st0" d="M168.3,23.7V18l2.6-0.4v0.9l-1.6,0.3v1.5l1.2-0.2v0.9l-1.2,0.2v1.7l1.7-0.3v0.9L168.3,23.7z"/>
		<path class="st0" d="M172.7,22.9l-0.9,0.2l1-5.9L174,17l1,5.5l-0.9,0.2l-0.2-1.2l-1.1,0.2L172.7,22.9z M173,20.8l0.8-0.1l-0.4-2.4
			l0,0L173,20.8z"/>
		<path class="st0" d="M176.9,22.2l-1,0.2v-5.7l1.4-0.2c1.1-0.2,1.6,0.2,1.6,1.4c0,0.9-0.4,1.4-0.7,1.6l0.8,2.4l-1,0.2l-0.7-2.2
			c-0.1,0-0.3,0.1-0.5,0.1V22.2z M176.9,19.1l0.3-0.1c0.5-0.1,0.7-0.3,0.7-1c0-0.7-0.2-0.8-0.7-0.8l-0.3,0.1V19.1z"/>
		<path class="st0" d="M182,17c0-0.5-0.3-0.6-0.5-0.5c-0.3,0.1-0.5,0.3-0.5,0.6c0,1,2,1.1,2,2.7c0,0.9-0.6,1.6-1.5,1.7
			c-0.9,0.2-1.4-0.5-1.5-1.3l0.9-0.3c0,0.6,0.3,0.8,0.6,0.8c0.3-0.1,0.6-0.3,0.6-0.6c0-1.1-2-1.1-2-2.7c0-0.9,0.5-1.5,1.5-1.7
			c0.8-0.1,1.3,0.4,1.3,1.2L182,17z"/>
	</g>
</g>
<g>
	<polygon class="st0" points="26.5,24.8 26.5,29.1 18.4,29.1 18.4,24.8 16.3,24.8 16.3,35.8 18.4,35.8 18.4,30.8 26.5,30.8 
		26.5,35.8 28.6,35.8 28.6,24.8 	"/>
	<polygon class="st0" points="90,26.4 90,24.8 79.6,24.8 79.6,35.8 90,35.8 90,34.1 81.7,34.1 81.7,30.8 89.5,30.8 89.5,29.1 
		81.7,29.1 81.7,26.4 	"/>
	<polygon class="st0" points="39.3,24.8 37.8,24.8 30.9,35.8 33.2,35.8 38.5,27.3 43.8,35.8 46.1,35.8 	"/>
	<path class="st0" d="M9.2,29.5h-2v0h-2c-0.1,0-0.1,0-0.2,0c0,0,0,0-0.1,0c0,0-0.1,0-0.1,0c-0.9-0.1-1.2-0.6-1.2-1.2v-0.7
		c0-0.7,0.4-1.2,1.6-1.2h6.6v-1.6H5.1c-2.5,0-3.5,1.1-3.5,2.7v1c0,1.6,1,2.7,3.5,2.7h2v0h2c0.1,0,0.1,0,0.2,0c0,0,0,0,0.1,0
		c0,0,0.1,0,0.1,0c0.9,0.1,1.2,0.6,1.2,1.2v0.7c0,0.7-0.4,1.2-1.6,1.2H1.8v1.6h7.3c2.5,0,3.5-1.1,3.5-2.7v-1
		C12.6,30.5,11.7,29.5,9.2,29.5z"/>
	<path class="st0" d="M60.8,28.4v-1c0-1.6-1-2.7-3.5-2.7H49v11H51v-4.7h5l2.5,4.7h2.2L58.2,31C60.1,30.8,60.8,29.8,60.8,28.4z
		 M59,28.3c0,0.7-0.4,1.2-1.6,1.2H51v-3.1h6.4c0.1,0,0.1,0,0.2,0c0,0,0,0,0.1,0c0,0,0.1,0,0.1,0c0.9,0.1,1.2,0.6,1.2,1.2V28.3z"/>
	<path class="st0" d="M72.9,24.8h-8.1v11h2.1v-4.7h6c2.5,0,3.5-1.1,3.5-2.7v-1C76.3,25.9,75.4,24.8,72.9,24.8z M74.5,28.3
		c0,0.7-0.4,1.2-1.6,1.2h-6v-3.1h6c0.1,0,0.1,0,0.2,0c0,0,0,0,0.1,0c0,0,0.1,0,0.1,0c0.9,0.1,1.2,0.6,1.2,1.2V28.3z"/>
</g>
</svg>
